<svg width="480" height="151" viewBox="0 0 480 151" fill="none" xmlns="http://www.w3.org/2000/svg">
<g clip-path="url(#clip0_2058_585)">
<path d="M9.92368 61.4713V99.5103H4V61.4713H9.92368ZM43.9418 84.6544C43.9418 85.7172 43.8725 86.6766 43.734 87.5331H21.858C22.0311 89.7949 22.8799 91.6114 24.4041 92.9819C25.9283 94.3532 27.7989 95.0381 30.016 95.0381C33.203 95.0381 35.4547 93.7189 36.7711 91.08H43.1624C42.2963 93.6849 40.7202 95.8265 38.4339 97.5055C36.1822 99.1504 33.3762 99.9729 30.016 99.9729C27.2793 99.9729 24.8198 99.3734 22.6374 98.1738C20.4896 96.9401 18.7922 95.227 17.5451 93.0333C16.3326 90.8063 15.7264 88.236 15.7264 85.3227C15.7264 82.41 16.3153 79.8571 17.4931 77.6635C18.7055 75.4364 20.3857 73.7227 22.5335 72.523C24.7159 71.324 27.21 70.7239 30.016 70.7239C32.718 70.7239 35.1256 71.3067 37.2387 72.4716C39.3518 73.6372 40.9973 75.2822 42.1751 77.4065C43.3529 79.4973 43.9418 81.9133 43.9418 84.6544ZM37.7584 82.8039C37.7237 80.6449 36.9442 78.9145 35.4201 77.6121C33.8958 76.3103 32.0078 75.6587 29.7562 75.6587C27.7123 75.6587 25.963 76.3103 24.508 77.6121C23.0531 78.8805 22.187 80.6109 21.9099 82.8039H37.7584ZM47.7968 85.2199C47.7968 82.376 48.3857 79.8571 49.5635 77.6635C50.7759 75.4704 52.4041 73.7741 54.4479 72.5745C56.5264 71.3407 58.8128 70.7239 61.3069 70.7239C63.5586 70.7239 65.516 71.1698 67.1788 72.0604C68.876 72.9176 70.227 73.9971 71.2318 75.2989V71.1865H77.2075V99.5103H71.2318V95.2951C70.227 96.6316 68.8585 97.7458 67.1268 98.6364C65.3945 99.5276 63.42 99.9729 61.203 99.9729C58.7435 99.9729 56.4917 99.3561 54.4479 98.1224C52.4041 96.8546 50.7759 95.1069 49.5635 92.8791C48.3857 90.6173 47.7968 88.0645 47.7968 85.2199ZM71.2318 85.3227C71.2318 83.3693 70.8161 81.673 69.9847 80.2337C69.1878 78.7944 68.131 77.6982 66.8151 76.9438C65.4985 76.1901 64.0782 75.8129 62.554 75.8129C61.0298 75.8129 59.6095 76.1901 58.2931 76.9438C56.9767 77.6635 55.9029 78.743 55.0715 80.1823C54.2747 81.5875 53.8764 83.2665 53.8764 85.2199C53.8764 87.1733 54.2747 88.887 55.0715 90.3603C55.9029 91.8343 56.9767 92.9652 58.2931 93.753C59.6442 94.5074 61.0644 94.8839 62.554 94.8839C64.0782 94.8839 65.4985 94.5074 66.8151 93.753C68.131 92.9993 69.1878 91.9025 69.9847 90.4631C70.8161 88.9898 71.2318 87.2761 71.2318 85.3227ZM90.9118 75.2989C91.7777 73.8596 92.9208 72.746 94.3413 71.9576C95.7963 71.1351 97.511 70.7239 99.4856 70.7239V76.7896H97.9787C95.6573 76.7896 93.8906 77.3724 92.6786 78.5373C91.5003 79.7029 90.9118 81.7244 90.9118 84.6031V99.5103H84.9882V71.1865H90.9118V75.2989ZM119.376 70.7239C121.627 70.7239 123.637 71.1865 125.404 72.1118C127.205 73.0371 128.608 74.4083 129.613 76.2242C130.617 78.0407 131.119 80.2337 131.119 82.8039V99.5103H125.248V83.6778C125.248 81.1423 124.607 79.2056 123.325 77.8691C122.043 76.4985 120.294 75.8129 118.077 75.8129C115.859 75.8129 114.093 76.4985 112.777 77.8691C111.495 79.2056 110.854 81.1423 110.854 83.6778V99.5103H104.931V71.1865H110.854V74.425C111.824 73.2601 113.054 72.3521 114.544 71.7006C116.067 71.0497 117.678 70.7239 119.376 70.7239ZM141.689 67.434C140.615 67.434 139.715 67.0742 138.987 66.3545C138.26 65.6349 137.896 64.7443 137.896 63.6816C137.896 62.6193 138.26 61.7283 138.987 61.0086C139.715 60.289 140.615 59.9291 141.689 59.9291C142.728 59.9291 143.612 60.289 144.339 61.0086C145.067 61.7283 145.43 62.6193 145.43 63.6816C145.43 64.7443 145.067 65.6349 144.339 66.3545C143.612 67.0742 142.728 67.434 141.689 67.434ZM144.599 71.1865V99.5103H138.675V71.1865H144.599ZM166.822 70.7239C169.073 70.7239 171.083 71.1865 172.85 72.1118C174.651 73.0371 176.054 74.4083 177.059 76.2242C178.063 78.0407 178.565 80.2337 178.565 82.8039V99.5103H172.694V83.6778C172.694 81.1423 172.053 79.2056 170.771 77.8691C169.489 76.4985 167.74 75.8129 165.523 75.8129C163.305 75.8129 161.539 76.4985 160.223 77.8691C158.941 79.2056 158.3 81.1423 158.3 83.6778V99.5103H152.377V71.1865H158.3V74.425C159.27 73.2601 160.5 72.3521 161.99 71.7006C163.513 71.0497 165.124 70.7239 166.822 70.7239ZM197.657 70.7239C199.874 70.7239 201.831 71.1698 203.529 72.0604C205.26 72.9176 206.611 73.9971 207.582 75.2989V71.1865H213.557V99.9729C213.557 102.578 213.003 104.891 211.895 106.912C210.786 108.969 209.175 110.58 207.062 111.744C204.984 112.91 202.489 113.492 199.58 113.492C195.699 113.492 192.478 112.584 189.915 110.768C187.351 108.986 185.896 106.553 185.55 103.468H191.422C191.872 104.942 192.824 106.125 194.279 107.015C195.769 107.941 197.536 108.403 199.58 108.403C201.97 108.403 203.892 107.684 205.347 106.244C206.837 104.805 207.582 102.715 207.582 99.9729V95.2437C206.577 96.5802 205.208 97.7111 203.477 98.6364C201.779 99.5276 199.839 99.9729 197.657 99.9729C195.163 99.9729 192.876 99.3561 190.798 98.1224C188.754 96.8546 187.126 95.1069 185.914 92.8791C184.735 90.6173 184.147 88.0645 184.147 85.2199C184.147 82.376 184.735 79.8571 185.914 77.6635C187.126 75.4704 188.754 73.7741 190.798 72.5745C192.876 71.3407 195.163 70.7239 197.657 70.7239ZM207.582 85.3227C207.582 83.3693 207.166 81.673 206.335 80.2337C205.538 78.7944 204.481 77.6982 203.165 76.9438C201.848 76.1901 200.428 75.8129 198.904 75.8129C197.38 75.8129 195.959 76.1901 194.643 76.9438C193.327 77.6635 192.253 78.743 191.422 80.1823C190.625 81.5875 190.226 83.2665 190.226 85.2199C190.226 87.1733 190.625 88.887 191.422 90.3603C192.253 91.8343 193.327 92.9652 194.643 93.753C195.994 94.5074 197.414 94.8839 198.904 94.8839C200.428 94.8839 201.848 94.5074 203.165 93.753C204.481 92.9993 205.538 91.9025 206.335 90.4631C207.166 88.9898 207.582 87.2761 207.582 85.3227ZM235.692 100.474C231.275 100.474 227.703 99.4891 224.975 97.5184C222.269 95.5265 220.623 92.7211 220.038 89.1009L229.067 87.7516C229.435 89.3798 230.247 90.654 231.503 91.5747C232.78 92.4962 234.393 92.9562 236.341 92.9562C237.944 92.9562 239.178 92.6568 240.044 92.0567C240.91 91.436 241.343 90.5788 241.343 89.4865C241.343 88.8015 241.17 88.2553 240.823 87.8479C240.477 87.42 239.698 87.0023 238.485 86.595C237.294 86.1882 235.432 85.653 232.899 84.9886C230.041 84.2606 227.757 83.4464 226.046 82.5469C224.336 81.6473 223.102 80.5768 222.344 79.3341C221.587 78.0709 221.208 76.5499 221.208 74.772C221.208 72.5449 221.782 70.6172 222.929 68.989C224.076 67.3402 225.689 66.0763 227.768 65.1979C229.868 64.2984 232.336 63.8487 235.172 63.8487C237.922 63.8487 240.358 64.2662 242.479 65.1016C244.601 65.9369 246.312 67.1256 247.611 68.6677C248.932 70.2099 249.744 72.0308 250.046 74.1294L241.018 75.7358C240.867 74.4507 240.304 73.4335 239.329 72.6837C238.355 71.9345 237.035 71.495 235.367 71.3665C233.743 71.2598 232.434 71.4738 231.438 72.009C230.463 72.5449 229.976 73.316 229.976 74.3222C229.976 74.9223 230.182 75.4255 230.593 75.8322C231.026 76.2396 231.903 76.6572 233.224 77.0852C234.566 77.5138 236.601 78.0709 239.329 78.7558C241.992 79.4414 244.125 80.2446 245.727 81.1654C247.351 82.065 248.531 83.1573 249.267 84.4424C250.004 85.7063 250.371 87.2375 250.371 89.0367C250.371 92.5926 249.072 95.3877 246.474 97.422C243.876 99.457 240.282 100.474 235.692 100.474ZM274.721 100.474C271.235 100.474 268.323 99.6709 265.985 98.0645C263.646 96.4582 261.882 94.2735 260.691 91.5105C259.522 88.7475 258.937 85.6311 258.937 82.1613C258.937 78.6916 259.522 75.5752 260.691 72.8122C261.86 70.0492 263.581 67.8645 265.855 66.2582C268.128 64.6518 270.932 63.8487 274.266 63.8487C277.622 63.8487 280.545 64.6415 283.035 66.226C285.524 67.8112 287.451 69.985 288.815 72.7479C290.201 75.4897 290.894 78.6273 290.894 82.1613C290.894 85.6311 290.212 88.7475 288.848 91.5105C287.505 94.2735 285.622 96.4582 283.197 98.0645C280.772 99.6709 277.947 100.474 274.721 100.474ZM257.443 114.932V64.8124H265.238V88.5869H266.342V114.932H257.443ZM273.292 92.6992C275.197 92.6992 276.756 92.2282 277.968 91.2856C279.181 90.3436 280.079 89.0797 280.664 87.4945C281.248 85.8882 281.541 84.1109 281.541 82.1613C281.541 80.2337 281.237 78.4776 280.631 76.8924C280.025 75.286 279.084 74.0118 277.806 73.0692C276.55 72.1054 274.937 71.6235 272.967 71.6235C271.127 71.6235 269.633 72.063 268.485 72.9407C267.36 73.8191 266.537 75.0509 266.017 76.6354C265.497 78.2206 265.238 80.0628 265.238 82.1613C265.238 84.2606 265.497 86.1028 266.017 87.6873C266.537 89.2725 267.381 90.5043 268.55 91.382C269.741 92.2604 271.322 92.6992 273.292 92.6992ZM307.783 100.474C305.272 100.474 303.139 100.003 301.385 99.0605C299.653 98.0967 298.332 96.8225 297.423 95.2373C296.536 93.6309 296.091 91.8639 296.091 89.9362C296.091 88.3299 296.341 86.8629 296.838 85.5348C297.337 84.2072 298.137 83.0397 299.242 82.0328C300.368 81.0048 301.872 80.1482 303.756 79.4626C305.055 78.9916 306.603 78.574 308.4 78.2096C310.197 77.846 312.232 77.5028 314.505 77.1816C316.779 76.8391 319.28 76.4645 322.008 76.0571L318.825 77.792C318.825 75.7358 318.327 74.2258 317.331 73.262C316.335 72.2982 314.668 71.8162 312.33 71.8162C311.031 71.8162 309.678 72.1272 308.27 72.7479C306.863 73.3693 305.878 74.4726 305.315 76.0571L297.326 73.5511C298.213 70.6815 299.881 68.3465 302.327 66.5473C304.774 64.7482 308.108 63.8487 312.33 63.8487C315.426 63.8487 318.175 64.3202 320.579 65.2622C322.982 66.2048 324.8 67.8324 326.035 70.1456C326.728 71.4307 327.139 72.7158 327.269 74.0009C327.399 75.286 327.464 76.7215 327.464 78.306V99.5103H319.734V92.3779L320.838 93.8558C319.128 96.1909 317.277 97.8827 315.285 98.932C313.315 99.9601 310.814 100.474 307.783 100.474ZM309.667 93.5988C311.29 93.5988 312.654 93.3206 313.759 92.7635C314.885 92.1852 315.772 91.5323 316.422 90.8037C317.093 90.0757 317.548 89.4652 317.786 88.9724C318.24 88.0304 318.5 86.9381 318.565 85.6954C318.652 84.4321 318.695 83.3822 318.695 82.5469L321.293 83.1894C318.673 83.618 316.551 83.9823 314.928 84.2818C313.304 84.5606 311.994 84.8177 310.998 85.0528C310.002 85.2887 309.125 85.5457 308.367 85.8239C307.502 86.167 306.798 86.5416 306.257 86.9484C305.737 87.3339 305.347 87.7625 305.087 88.2335C304.85 88.7051 304.73 89.2294 304.73 89.8077C304.73 90.6006 304.925 91.2856 305.315 91.8639C305.726 92.421 306.3 92.8496 307.036 93.149C307.772 93.4491 308.649 93.5988 309.667 93.5988ZM335.908 99.5103V64.8124H343.702V73.2941L342.858 72.2018C343.313 71.0028 343.919 69.9104 344.677 68.9247C345.435 67.9397 346.365 67.1256 347.47 66.483C348.314 65.969 349.234 65.5732 350.23 65.2943C351.226 64.9949 352.255 64.8124 353.315 64.7482C354.376 64.6627 355.437 64.6839 356.498 64.8124V72.9728C355.524 72.6734 354.387 72.577 353.088 72.6837C351.81 72.7698 350.652 73.0589 349.613 73.5511C348.574 74.0228 347.697 74.6544 346.982 75.4467C346.268 76.2177 345.727 77.1392 345.359 78.2096C344.99 79.2596 344.807 80.4483 344.807 81.7758V99.5103H335.908ZM362.611 99.5103L362.676 53.2466H371.639V81.5188L383.525 64.8124H394.438L381.772 82.1613L395.282 99.5103H383.785L371.639 82.8039V99.5103H362.611Z" fill="white"/>
<path d="M385.601 30.6079C384.721 28.4025 382.201 27.3198 379.972 28.1897C377.743 29.0595 376.648 31.5525 377.528 33.7579L382.105 45.2384C382.984 47.4437 385.504 48.5264 387.733 47.6566C389.963 46.7867 391.057 44.2938 390.178 42.0884L385.601 30.6079Z" fill="#845AF7"/>
<path d="M429.424 48.4103C431.12 46.7357 431.123 44.0178 429.43 42.3397C427.738 40.6616 424.99 40.6588 423.294 42.3334L411.009 54.4614C409.312 56.1361 409.31 58.854 411.002 60.532C412.695 62.2101 415.443 62.213 417.139 60.5383L429.424 48.4103Z" fill="#FE3F60"/>
<path d="M438.361 93.3847C440.643 94.1079 443.086 92.8638 443.817 90.6061C444.548 88.3484 443.291 85.9318 441.008 85.2087L424.48 79.9715C422.197 79.2484 419.755 80.4924 419.024 82.7502C418.293 85.0079 419.55 87.4244 421.832 88.1475L438.361 93.3847Z" fill="#00ABC2"/>
<path d="M406.017 122.248C406.587 124.551 408.937 125.96 411.264 125.395C413.592 124.831 415.016 122.506 414.445 120.204L411.433 108.051C410.863 105.748 408.513 104.339 406.186 104.904C403.858 105.468 402.434 107.792 403.005 110.095L406.017 122.248Z" fill="#FE3F60" fill-opacity="0.97"/>
<path d="M414.499 6.34492C415.112 4.05299 413.73 1.70365 411.414 1.09751C409.097 0.49137 406.722 1.85797 406.109 4.1499L394.944 45.915C394.331 48.2069 395.713 50.5562 398.029 51.1624C400.346 51.7685 402.721 50.4019 403.334 48.11L414.499 6.34492Z" fill="#FFC600"/>
<path d="M475.802 61.0048C478.121 60.4065 479.51 58.0619 478.905 55.7679C478.301 53.4739 475.931 52.0992 473.612 52.6975L421.899 66.0383C419.581 66.6365 418.191 68.9811 418.796 71.2751C419.4 73.5691 421.77 74.9438 424.089 74.3456L475.802 61.0048Z" fill="#1ADDC2"/>
<path d="M452.265 137.228C453.946 138.917 456.694 138.939 458.402 137.276C460.11 135.613 460.131 132.895 458.45 131.206L420.964 93.5253C419.283 91.8356 416.536 91.814 414.828 93.4769C413.12 95.1398 413.098 97.8577 414.779 99.5473L452.265 137.228Z" fill="#FFC600"/>
<path d="M376.648 6.02002C375.768 3.81463 373.248 2.73196 371.019 3.60179C368.79 4.47162 367.695 6.96458 368.574 9.16996L373.97 22.702C374.849 24.9074 377.369 25.9901 379.598 25.1203C381.828 24.2504 382.922 21.7575 382.043 19.5521L376.648 6.02002Z" fill="#845AF7"/>
<path d="M448.619 31.0275C450.316 29.3529 450.318 26.635 448.626 24.9569C446.933 23.2788 444.185 23.276 442.489 24.9506L432.706 34.6088C431.01 36.2834 431.007 39.0013 432.699 40.6794C434.392 42.3575 437.14 42.3604 438.836 40.6857L448.619 31.0275Z" fill="#FE3F60"/>
<path d="M458.83 99.6914C461.112 100.415 463.555 99.1704 464.286 96.9127C465.017 94.655 463.759 92.2385 461.477 91.5153L452.142 88.5573C449.859 87.8342 447.417 89.0782 446.686 91.336C445.955 93.5937 447.212 96.0102 449.494 96.7334L458.83 99.6914Z" fill="#00ABC2"/>
<path d="M412.407 146.341C412.978 148.644 415.327 150.053 417.655 149.488C419.982 148.924 421.407 146.6 420.836 144.297L417.932 132.58C417.362 130.277 415.012 128.868 412.685 129.433C410.357 129.997 408.933 132.322 409.503 134.624L412.407 146.341Z" fill="#FE3F60" fill-opacity="0.97"/>
</g>
<defs>
<clipPath id="clip0_2058_585">
<rect width="480" height="151" fill="white"/>
</clipPath>
</defs>
</svg>
