<svg width="38" height="38" viewBox="0 0 38 38" fill="none" xmlns="http://www.w3.org/2000/svg">
<mask id="mask0_2069_522" style="mask-type:alpha" maskUnits="userSpaceOnUse" x="0" y="0" width="38" height="38">
<rect width="38" height="38" rx="19" fill="#D9D9D9"/>
</mask>
<g mask="url(#mask0_2069_522)">
<path d="M-1 4.14114V27.9627C20.6667 34.6542 42.3332 21.2713 63.9999 27.9627V4.14114C42.3332 -2.5503 20.6667 10.8325 -1 4.14114Z" fill="#FFB636"/>
<path d="M20.6552 20.4169H16.0391V15.1357H19.9191C20.1143 15.1357 20.3016 15.2133 20.4396 15.3513C20.5777 15.4894 20.6552 15.6766 20.6552 15.8719V20.4169Z" fill="#E8E8E8"/>
<path d="M20.792 11.6406H16.7688C16.89 11.3178 16.9628 10.9137 16.9628 10.4737C16.9628 9.41963 16.5491 8.56519 16.039 8.56519C15.5288 8.56519 15.1151 9.41963 15.1151 10.4737C15.1151 10.9137 15.188 11.3178 15.3091 11.6406H11.2898C10.9773 11.6406 10.756 11.9459 10.8532 12.2429L11.3198 13.6687C11.3498 13.7604 11.4079 13.8403 11.4858 13.8971C11.5638 13.954 11.6576 13.9848 11.7541 13.9853L20.3184 14.028C20.4161 14.0286 20.5114 13.9979 20.5905 13.9405C20.6695 13.8832 20.7282 13.8021 20.758 13.709L21.2293 12.2405C21.3245 11.9439 21.1034 11.6406 20.792 11.6406Z" fill="#E2A042"/>
<path d="M9.92687 19.3521C9.92687 19.0368 9.8016 18.7343 9.57861 18.5113C9.35563 18.2884 9.0532 18.1631 8.73785 18.1631C8.4225 18.1631 8.12007 18.2884 7.89708 18.5113C7.6741 18.7343 7.54883 19.0368 7.54883 19.3521C7.54883 19.8256 7.82628 20.2331 8.22666 20.4244V24.4512C8.22666 24.5518 8.3082 24.6333 8.40877 24.6333H9.06693C9.1675 24.6333 9.24904 24.5518 9.24904 24.4512V20.4244C9.64955 20.2331 9.92687 19.8256 9.92687 19.3521ZM24.1976 19.3521C24.1976 19.0368 24.0723 18.7343 23.8493 18.5113C23.6263 18.2884 23.3239 18.1631 23.0085 18.1631C22.6932 18.1631 22.3908 18.2884 22.1678 18.5113C21.9448 18.7343 21.8195 19.0368 21.8195 19.3521C21.8195 19.8256 22.0968 20.2331 22.4973 20.4244V24.4512C22.4973 24.5518 22.5789 24.6333 22.6795 24.6333H23.3376C23.4382 24.6333 23.5197 24.5518 23.5197 24.4512V20.4244C23.9201 20.2331 24.1976 19.8256 24.1976 19.3521Z" fill="#E8E8E8"/>
<path d="M63.9999 -4.5437V4.14099C42.3332 -2.55045 20.6667 10.8324 -1 4.14099V-3.21244C-1 -4.62357 0.31669 -5.66102 1.69025 -5.33783C21.9602 -0.568066 42.2303 -11.9135 62.5003 -6.49988C63.3852 -6.26359 63.9999 -5.45962 63.9999 -4.5437ZM-1 27.9627V36.6473C-1 37.5632 -0.385297 38.3671 0.499567 38.6034C20.8357 44.0347 41.1719 32.5972 61.5081 37.4885C62.7789 37.7942 64 36.8269 64 35.5198V27.9624C42.3332 21.2713 20.6667 34.6541 -1 27.9627ZM16.0389 20.4166V15.1353H12.1587C11.9635 15.1354 11.7764 15.2129 11.6383 15.351C11.5003 15.489 11.4228 15.6761 11.4227 15.8713V22.3258C11.4227 23.6006 12.4561 24.6338 13.7309 24.6338C15.0057 24.6338 16.0389 23.6005 16.0389 22.3258C16.0389 23.6006 17.0723 24.6338 18.347 24.6338C19.6218 24.6338 20.655 23.6005 20.655 22.3258V20.4166H16.0389ZM16.8771 11.7487C16.3184 11.771 15.7595 11.7938 15.2008 11.8162V14.178C15.7595 14.1585 16.3184 14.1382 16.8771 14.1187V11.7487ZM12.4026 14.2534C12.9614 14.2444 13.5202 14.2315 14.0789 14.2147V11.8581C13.5201 11.8778 12.9613 11.8951 12.4026 11.9067V14.2534ZM19.6753 11.6581C19.1166 11.6699 18.5578 11.6871 17.999 11.7068V14.082C18.5578 14.0651 19.1166 14.0521 19.6753 14.0432V11.6581Z" fill="#FF473E"/>
<path d="M15.1015 20.416H16.038V22.3253C16.038 23.0856 15.6687 23.758 15.1015 24.1785V20.416ZM12.3584 24.1785V20.416H11.4219V22.3253C11.4219 23.0856 11.7912 23.7579 12.3584 24.1785ZM14.1983 20.416H13.2618V24.5856C13.5707 24.6495 13.8894 24.6495 14.1983 24.5856V20.416Z" fill="#E2A042"/>
<path d="M17.6145 20.4161C17.6145 21.2869 16.9085 21.9929 16.0377 21.9929C15.1669 21.9929 14.461 21.2869 14.461 20.4161C14.461 19.5453 15.1669 18.8394 16.0377 18.8394C16.9085 18.8394 17.6145 19.5453 17.6145 20.4161ZM9.92687 24.9004V24.506C9.92684 24.3484 9.86423 24.1973 9.75282 24.0859C9.6414 23.9745 9.49031 23.9119 9.33274 23.9119H8.14296C7.98539 23.9119 7.83429 23.9745 7.72288 24.0859C7.61147 24.1973 7.54886 24.3484 7.54883 24.506V24.9004C7.54886 25.0579 7.61147 25.209 7.72288 25.3204C7.83429 25.4319 7.98539 25.4945 8.14296 25.4945H9.33274C9.49031 25.4945 9.6414 25.4319 9.75282 25.3204C9.86423 25.209 9.92684 25.0579 9.92687 24.9004ZM24.1976 24.9004V24.506C24.1975 24.3484 24.1349 24.1973 24.0235 24.0859C23.9121 23.9745 23.761 23.9119 23.6034 23.9119H22.4136C22.2561 23.9119 22.105 23.9745 21.9936 24.0859C21.8822 24.1973 21.8195 24.3484 21.8195 24.506V24.9004C21.8195 25.0579 21.8822 25.209 21.9936 25.3204C22.105 25.4319 22.2561 25.4945 22.4136 25.4945H23.6034C23.761 25.4945 23.9121 25.4319 24.0235 25.3204C24.1349 25.209 24.1975 25.0579 24.1976 24.9004Z" fill="#575A5B"/>
</g>
</svg>
